<?xml version="1.0" encoding="utf-8"?>
<!-- Generator: Adobe Illustrator 17.0.0, SVG Export Plug-In . SVG Version: 6.00 Build 0)  -->
<!DOCTYPE svg PUBLIC "-//W3C//DTD SVG 1.1//EN" "http://www.w3.org/Graphics/SVG/1.1/DTD/svg11.dtd">
<svg version="1.1" id="Layer_1" xmlns="http://www.w3.org/2000/svg" xmlns:xlink="http://www.w3.org/1999/xlink" x="0px" y="0px"
	 width="70px" height="52px" viewBox="0 0 70 52" enable-background="new 0 0 70 52" xml:space="preserve">
<g>
	<path fill="#00A79D" d="M63.098,37.068c0,5.33-4.321,9.651-9.651,9.651H18.048c-5.33,0-9.651-4.321-9.651-9.651V16.427
		c0-5.33,4.321-9.651,9.651-9.651h35.399c5.33,0,9.651,4.321,9.651,9.651V37.068z"/>
	<g>
		<g>
			<path opacity="0.1091" fill="#00A79D" d="M57.73,46.281c-0.907,1.402-1.814,2.803-2.72,4.205
				c0.852-0.452,1.703-0.903,2.555-1.355c-3.24,0.257-6.481,0.513-9.721,0.77c0.339,0.156,0.679,0.313,1.018,0.469
				c-0.852-1.476-2.542-2.415-3.904-3.331c-3.232-2.173-6.516-2.467-10.269-2.918c-4.897-0.589-9.828-0.822-14.752-1.032
				c-1.988-0.085-3.976-0.157-5.963-0.237c-2.175-0.087-3.224-0.072-5.143-2.649c0.108,0.258,0.215,0.516,0.323,0.774
				c-0.738-3.358-0.231-5.123,1.087-8.047c-0.202,0.082-0.403,0.165-0.605,0.247c0.898-0.144,1.427-0.223,2.008-1.012
				c1.095-1.488,2.631-3.374,2.967-5.199c0.556-3.013,1.035-6.021,1.342-9.07c0.218-2.163,0.419-4.189,0.881-6.309
				c-0.161,0.378-0.322,0.756-0.483,1.135c2.139-3.49,4.093-2.476,6.797-2.096c-0.16-0.197-0.321-0.393-0.481-0.59
				c0.303,1.021,0.841,1.313,1.834,1.715c1.632,0.703,3.295,1.323,4.988,1.861c2.759,0.96,5.546,1.228,8.424,1.559
				c5.037,0.581,10.128,0.7,15.19,0.885c3.467,0.127,7.164-0.258,10.302,1.574c-1.09-0.847-2.18-1.694-3.271-2.542
				c1.176,1.098,2.351,2.196,3.527,3.295c-0.918-1.021-1.837-2.043-2.755-3.064c1.152,1.554,2.304,3.108,3.456,4.663
				c-0.699-1.109-1.398-2.218-2.097-3.327c0.573,1.276,1.146,2.551,1.719,3.827c-0.264-0.757-0.528-1.515-0.792-2.272
				c0.262,1.351,0.523,2.703,0.785,4.054c-0.104-0.786-0.208-1.572-0.311-2.358c-0.003,1.822-0.005,3.644-0.008,5.466
				c0.217-1.364,0.435-2.728,0.652-4.093c-1.461,1.647-2.161,4.281-2.971,6.297c-0.903,2.249-1.336,4.611-1.792,6.98
				c-0.453,2.351-0.746,4.725-1.002,7.104c-0.16,1.483-0.17,3.068-0.521,4.524c-0.281,1.168,1.642-0.014,1.695-0.057
				c0.792-0.639,2.335-1.714,2.457-2.832c0.24-2.194,0.36-4.407,0.541-6.607c0.194-2.352,0.62-4.712,0.97-7.044
				c0.304-2.025,0.356-4.044,0.754-6.071c-0.504,1.311-1.009,2.622-1.513,3.933c0.458-0.175,0.917-0.35,1.375-0.525
				c0.345-0.031,0.567-0.221,0.665-0.57c0.696-1.555,0.868-2.087,1.214-3.741c0.297-1.418-1.673-5.286-1.745-5.476
				c-0.374-0.98-1.362-1.676-2.139-2.318c-1.342-1.109-2.805-2.189-4.632-2.281c-3.107-0.156-6.209-0.282-9.321-0.269
				c-3.671,0.016-7.336-0.051-11.004-0.198c-3.727-0.149-7.528-0.262-11.124-1.307c0.906,0.376,1.812,0.751,2.717,1.127
				c-0.82-0.294-1.485-0.781-1.995-1.46c-0.031-0.397-0.127-0.776-0.288-1.136c-0.573-0.742-3.626-1.667-4.503-1.659
				c-1.315-0.18-2.573,0.009-3.773,0.568c-0.532,0.359-1.051,0.737-1.556,1.134c-0.959,0.714-1.698,2.085-2.163,3.154
				c-0.476,1.095-0.497,2.4-0.59,3.582c-0.077,1.051-0.155,2.101-0.233,3.152c-0.215,2.898-0.414,6.713-1.709,9.247
				c-0.922,1.243-2.012,2.28-3.269,3.112C7.951,33.052,7.332,34.575,7,36.213c-0.351,1.178-0.291,3.796,0.517,4.878
				c0.894,1.198,1.927,2.822,3.495,3.281c2.282,0.667,4.357,0.642,6.745,0.731c3.704,0.138,7.402,0.276,11.099,0.543
				c5.507,0.397,11.047,0.632,16.016,3.278c0.928,0.287,1.385,0.861,1.371,1.719c0.061,0.291,0.243,0.476,0.543,0.557
				c2.355,0.908,4.215,1.244,6.733,1.019c1.605-0.143,3.315-0.925,4.691-1.732c2.438-1.43,3.329-3.71,3.96-6.262
				c0.268-1.087-1.42-0.378-1.645-0.253C59.708,44.426,57.956,45.244,57.73,46.281z"/>
			<path opacity="0.1091" fill="#00A79D" d="M55.324,43.614c-0.339,0.963-0.677,1.926-1.016,2.89
				c0.855-0.861,1.711-1.722,2.566-2.582c-1.486,1.156-2.972,2.312-4.457,3.468c1.613-0.892,3.227-1.783,4.84-2.675
				c-2.2,1.001-4.399,2.003-6.598,3.004c1.689-0.621,3.378-1.242,5.067-1.863c-2.312,0.568-4.623,1.136-6.935,1.704
				c1.751-0.336,3.502-0.671,5.254-1.007c-2.325,0.169-4.65,0.338-6.975,0.507c1.959,0.142,3.918,0.284,5.877,0.426
				c-4.504-1.906-9.48-2.819-14.307-3.58c-3.885-0.612-7.785-0.974-11.703-1.28c-3.691-0.289-7.392-0.379-11.09-0.499
				c-3.375-0.11-6.481,0.191-9.119-2.682c0.878,1.275,1.755,2.55,2.633,3.824c-1.028-2.121-2.056-4.241-3.085-6.362
				c0.328,1.326,0.655,2.653,0.983,3.979c-0.305-1.987-0.61-3.973-0.915-5.96c0.079,1.322,0.159,2.644,0.238,3.966
				c0.091-1.934,0.181-3.868,0.272-5.802c-0.202,1.265-0.403,2.529-0.605,3.794c1.162-1.675,1.901-4.161,2.691-6.059
				c0.957-2.297,1.522-4.698,2.008-7.129c0.472-2.357,0.77-4.734,1.021-7.122c0.288-2.728,0.272-5.123,1.808-7.608
				c-0.494,0.555-0.988,1.111-1.482,1.666c1.289-0.963,2.578-1.926,3.867-2.889c-0.997,0.526-1.994,1.053-2.991,1.579
				c1.221-0.444,2.442-0.888,3.664-1.333c-0.674,0.203-1.348,0.406-2.022,0.609c1.843-0.077,3.686-0.154,5.529-0.231
				c-0.874-0.153-1.748-0.305-2.621-0.458c1.65,1.348,4.126,1.916,6.136,2.564c0.92,0.301,1.841,0.596,2.765,0.886
				c2.587,0.706,5.108,1.052,7.769,1.381c5.061,0.625,10.179,0.777,15.271,0.953c3.122,0.108,6.178,0.169,9.265,0.649
				c-0.537-0.212-1.075-0.423-1.612-0.635c0.881,0.492,1.762,0.984,2.643,1.477c-1.183-0.894-2.365-1.788-3.548-2.682
				c1.276,1.124,2.552,2.249,3.828,3.373c-1.042-1.086-2.084-2.173-3.126-3.259c1.286,1.575,2.572,3.15,3.858,4.724
				c-0.87-1.221-1.74-2.442-2.609-3.663c0.677,1.297,1.355,2.594,2.032,3.891c-0.403-0.871-0.806-1.742-1.209-2.613
				c0.316,1.91,0.631,3.82,0.947,5.73c0.007-1.224,0.014-2.447,0.02-3.671c-1.404,3.184-1.615,6.965-2.466,10.377
				c-0.591,2.372-0.858,4.811-1.187,7.228c-0.399,2.929-0.306,6.047-0.967,8.929c0.017,0.405,0.218,0.545,0.604,0.422
				c0.663-0.392,1.192-0.927,1.588-1.606c0.863-1.14,1.682-2.312,2.454-3.515c0.501-0.606,0.821-1.287,0.961-2.044
				c0.093-2.19,0.112-4.385,0.17-6.576c0.007-1.566,0.019-3.131,0.037-4.697c0.018-1.842-0.169-3.521-0.317-5.344
				c-0.544,1.965-1.088,3.929-1.631,5.894c0.648-0.553,1.296-1.105,1.944-1.658c0.762-0.449,1.187-1.183,1.275-2.201
				c0.496-1.045,0.65-3.619,0.156-4.78c-0.735-1.729-1.309-2.526-2.64-3.839c-1.669-1.647-3.808-3.486-6.273-3.603
				c-10.957-0.52-22.035,0.101-32.838-2.132c1.13,0.404,2.259,0.808,3.389,1.211c-0.795-0.378-1.096-0.593-1.286-1.467
				c-0.198-0.914-1.832-1.275-2.62-1.388c-0.74-0.107-1.481-0.213-2.221-0.32c-1.277,0.297-2.553,0.595-3.829,0.894
				c-1.136,0.266-2.781,1.774-3.47,2.683c-0.981,1.294-1.97,2.461-2.218,4.139c-0.243,1.641-0.396,3.177-0.519,4.826
				c-0.412,5.529-1.264,11.127-2.569,16.52c0.572-1.373,1.145-2.745,1.717-4.118c-2.059,2.17-2.781,6.496-1.718,9.277
				c0.536,1.403,1.548,2.758,2.424,3.96c1.367,1.876,3.323,2.512,5.413,3.229c0.692,0.237,2.667,0.265,3.659,0.324
				c2.903,0.172,5.787,0.213,8.696,0.232c4.101,0.027,8.179,0.372,12.275,0.557c1.995,0.093,3.99,0.201,5.984,0.323
				c2.116-0.333,4.245-0.511,6.388-0.535c-2.13-0.672-4.26-1.344-6.39-2.017c2.174,2.345,5.806,2.093,8.794,2.637
				c0.743-0.177,1.401-0.53,1.974-1.06c1.403-1.004,3.416-2.211,4.443-3.637c0.621-0.703,1.133-1.474,1.535-2.313
				c0.649-1.275,0.965-2.629,0.947-4.061c0.178-1.628-2.45,0.967-2.334,0.853c-1.014,1.001-1.988,2.039-2.922,3.116
				C55.982,42.26,55.569,42.886,55.324,43.614z"/>
			<path opacity="0.1091" fill="#00A79D" d="M54.318,40.311c-0.115,0.605-0.229,1.21-0.344,1.815
				c0.148-0.326,0.296-0.652,0.444-0.978c-1.937,3.046-4.054,2.236-6.829,1.731c0.146,0.199,0.293,0.398,0.439,0.597
				c-0.431-1.707-2.322-2.071-3.802-2.72c-3.572-1.567-7.183-2.099-11.019-2.547c-5.021-0.586-10.096-0.704-15.143-0.875
				c-3.474-0.117-7.175,0.246-10.315-1.6c1.011,0.795,2.022,1.591,3.032,2.386c-1.113-1.062-2.225-2.125-3.338-3.187
				c0.839,0.961,1.677,1.923,2.516,2.884c-1.066-1.504-2.133-3.008-3.199-4.512c0.626,1.034,1.253,2.068,1.879,3.103
				c-0.518-1.242-1.036-2.485-1.555-3.727c0.223,0.7,0.446,1.399,0.669,2.099c-0.212-1.307-0.425-2.614-0.637-3.92
				c0.069,0.717,0.138,1.434,0.206,2.151c0.066-1.724,0.133-3.449,0.199-5.173c-0.254,1.224-0.509,2.448-0.763,3.671
				c1.546-1.496,2.319-3.96,3.177-5.895c0.976-2.202,1.426-4.573,1.894-6.919c0.464-2.321,0.744-4.693,0.999-7.043
				c0.109-1.084,0.22-2.168,0.331-3.251c0.276-2.704,0.834-3.691,3.171-5.608C15.628,3.195,14.924,3.597,14.22,4
				c3.337-0.082,6.674-0.164,10.011-0.246c-0.238-0.125-0.476-0.25-0.714-0.376c0.835,2.075,3.209,3.212,5.031,4.264
				c3.323,1.918,7.404,1.714,11.123,2.027c4.685,0.395,9.369,0.612,14.066,0.798c3.399,0.134,6.328-0.423,8.755,2.903
				c-0.089-0.225-0.177-0.45-0.266-0.675c0.685,3.382,0.153,5.126-1.224,8.034c0.201-0.078,0.403-0.155,0.604-0.233
				c-0.98,0.146-1.526,0.193-2.195,1.034c-1.132,1.423-2.686,3.22-3.178,4.99c-0.627,2.257-0.603,4.918-0.824,7.237
				c-0.201,2.112-0.298,4.343-0.724,6.427c-0.092,0.452,0.782,0.783,1.098,0.603c0.531-0.304,0.92-1.219,0.985-1.796
				c0.164-1.436,0.265-2.881,0.391-4.32c0.254-2.896-0.028-6.434,1.393-9.077c0.684-1.333,1.614-2.473,2.79-3.42
				c0.391-0.014,0.738-0.132,1.041-0.354c1.081-2.099,2.446-4.563,1.98-7.052c-0.411-2.195-0.363-2.017-1.769-3.932
				c-0.982-1.338-2.557-1.672-4.017-2.099c-0.447-0.033-0.895-0.055-1.343-0.066c-1.192-0.046-2.384-0.091-3.576-0.135
				c-4.722-0.178-9.426-0.408-14.138-0.767c-4.397-0.335-8.52-0.549-12.416-2.873c-0.457-1.045-1.125-1.877-2.006-2.497
				c-0.88-0.424-1.776-0.808-2.688-1.152c-2.69-0.618-5.626-0.273-8.086,0.972c-3.233,1.637-4.475,5.096-4.774,8.487
				c-0.227,2.577-0.415,5.136-0.789,7.697c-0.487,3.336-0.898,6.771-1.76,10.031c0.439-0.897,0.878-1.795,1.317-2.692
				c-0.317,0.296-0.634,0.591-0.952,0.887c0.248-0.113,0.496-0.225,0.744-0.338c-0.397,0.021-0.795,0.043-1.192,0.064
				c-0.331,0.004-0.558,0.166-0.68,0.486c-0.974,2.295-1.322,3.929-1.147,6.431c0.137,0.285,0.273,0.57,0.41,0.855
				c0.457,1.285,1.166,2.386,2.126,3.305c0.809,0.774,1.946,1.995,3.032,2.386c0.782,0.447,1.61,0.701,2.483,0.761
				c1.179,0.071,2.319,0.141,3.491,0.183c4.623,0.168,9.244,0.048,13.867,0.218c1.956,0.056,3.909,0.159,5.859,0.309
				c2.097,0.136,5.243-0.132,7.144,1c0.824,0.49,0.396,1.691,1.188,2.049c1.831,0.826,2.09,0.917,4.127,1.462
				c1.872,0.5,4.266-0.503,5.592-1.851c1.301-1.323,1.758-2.809,2.054-4.577c0.073-0.437-0.679-0.859-1.037-0.702
				C54.889,38.906,54.422,39.761,54.318,40.311z"/>
			<path opacity="0.1091" fill="#00A79D" d="M58.557,42.281c-0.797,1.376-1.594,2.751-2.39,4.127c1.46-1.05,2.919-2.1,4.379-3.15
				c-2.207,1.147-4.413,2.295-6.62,3.442c1.615-0.539,3.231-1.077,4.846-1.616c-1.648,0.362-3.296,0.724-4.944,1.087
				c1.062-0.16,2.124-0.321,3.186-0.481c-2.266,0.144-4.531,0.288-6.797,0.432c1.696,0.031,3.391,0.062,5.087,0.094
				c-4.135-1.231-8.526-2.313-12.804-3.068c-4.074-0.719-8.237-1.003-12.357-1.304c-3.695-0.269-7.399-0.355-11.101-0.469
				c-2.663-0.082-5.43,0.084-7.853-1.275c0.87,0.741,1.739,1.482,2.609,2.222c-1.281-1.21-2.563-2.42-3.844-3.63
				c1.233,1.339,2.465,2.677,3.698,4.016c-1.166-1.498-2.333-2.995-3.499-4.493c0.951,1.508,1.901,3.017,2.852,4.525
				c-1.076-2.076-2.153-4.152-3.229-6.228c0.72,1.633,1.439,3.266,2.159,4.898c-0.479-1.608-0.958-3.216-1.437-4.824
				c0.269,1.119,0.538,2.237,0.807,3.356c-0.304-2.318-0.609-4.636-0.913-6.954c0.116,1.838,0.233,3.676,0.349,5.515
				c1.255-6.801,2.752-13.466,3.491-20.343c0.334-3.111,0.103-6.755,1.786-9.559c-1.369,1.585-2.738,3.17-4.107,4.755
				c2.383-2.201,4.766-4.402,7.149-6.602c-2.118,1.452-4.235,2.904-6.353,4.356c3.382-1.411,6.763-2.822,10.145-4.233
				c-2.482,0.732-4.963,1.465-7.445,2.197c2.537-0.383,5.075-0.765,7.612-1.148c-2.036,0.128-4.071,0.256-6.107,0.384
				c5.883,0.972,11.618,2.034,17.5,2.806c4.003,0.526,8.077,0.693,12.104,0.948c3.356,0.213,6.727,0.237,10.087,0.378
				c2.03,0.086,3.904,0.016,5.785,1.083c-0.947-0.93-1.893-1.86-2.84-2.79c1.344,1.391,2.687,2.782,4.031,4.173
				c-1.306-1.623-2.611-3.246-3.917-4.869c1.526,2.143,3.052,4.287,4.578,6.43c-1.02-1.707-2.039-3.415-3.059-5.122
				c0.876,1.85,1.753,3.7,2.629,5.549c-0.648-1.824-1.297-3.649-1.945-5.473c0.641,2.441,1.283,4.882,1.924,7.322
				c-0.339-1.898-0.678-3.796-1.017-5.694c0.197,2.485,0.395,4.971,0.592,7.456c0.048-1.885,0.096-3.77,0.143-5.655
				c-0.91,3.599-1.776,7.209-2.596,10.83c-0.556,2.43-0.836,5.001-1.179,7.47c-0.412,2.966-0.39,6.059-0.987,8.992
				c-0.335,1.646,2.496-1.185,2.236-0.906c0.93-1.01,1.818-2.057,2.663-3.139c0.537-0.535,0.901-1.161,1.091-1.878
				c0.134-1.508,0.169-3.033,0.25-4.544c0.097-1.533,0.167-3.067,0.211-4.602c0.034-0.838,0.069-1.677,0.103-2.515
				c0.149-2.642,0.207-5.287,0.174-7.934c0.156-1.172-1.379-3.28-1.859-4.123c-0.665-1.167-1.435-2.885-2.596-3.703
				c-0.638-0.461-1.284-0.91-1.939-1.347c-2.291-1.17-3.942-1.565-6.515-1.687c-2.422-0.115-4.832-0.209-7.257-0.194
				c-5.075,0.032-10.145-0.263-15.214-0.111c-2.028,0.058-4.056,0.11-6.084,0.156c-0.832,0.22-1.664,0.439-2.497,0.659
				c-1.301,0.313-2.61,0.589-3.926,0.829c2.187,0.227,4.374,0.453,6.561,0.68c-2.11-0.517-4.219-1.033-6.329-1.55
				c-0.979-0.24-1.806,0.688-2.481,1.261c-1.722,1.462-3.846,3.056-4.948,5.068c-0.783,1.43-1.037,2.272-1.463,3.94
				C8.819,16.936,8.83,19.162,8.814,20c-0.035,1.823-0.078,3.646-0.119,5.469c-0.1,4.432,0.425,8.951,0.061,13.368
				c0.195,0.703,0.561,1.312,1.099,1.829c0.989,1.233,2.295,3.207,3.698,4.016c2.311,1.332,4.037,1.838,6.758,1.972
				c2.407,0.119,4.805,0.21,7.215,0.205c4.983-0.01,9.933,0.199,14.912,0.388c1.918,0.075,3.836,0.155,5.753,0.24
				c1.822,0.079,3.732-0.219,5.575-0.177c-2.183-0.624-4.366-1.248-6.548-1.872c0.278,0.483,0.556,0.966,0.835,1.449
				c0.183,1.153,3.506,0.774,4.057,0.768c1.632,0.285,3.22,0.214,4.765-0.212c1.606-0.713,3.128-1.894,4.519-2.944
				c2.447-1.847,3.346-4.318,3.765-7.254c0.222-1.551-2.351,0.629-2.31,0.596c-1.036,0.872-2.034,1.784-2.995,2.738
				C59.261,41.034,58.829,41.602,58.557,42.281z"/>
			<path opacity="0.1091" fill="#00A79D" d="M56.536,40.189c-0.154,0.622-0.307,1.244-0.461,1.866
				c0.108-0.235,0.216-0.47,0.324-0.705c-2.447,3.499-4.994,2.534-8.097,1.312c0.102,0.202,0.205,0.404,0.307,0.606
				c-0.188-1.637-1.505-2.257-2.917-2.955c-1.177-0.582-2.314-1.079-3.539-1.585c-1.166-0.481-2.921-0.582-4.022-0.751
				c-5.733-0.877-11.589-1.001-17.376-1.19c-3.099-0.101-6.15-0.105-9.207-0.62c0.608,0.275,1.217,0.549,1.825,0.824
				c-0.929-0.668-1.858-1.335-2.788-2.003c0.484,0.493,0.967,0.986,1.451,1.479c-1.546-2.372-2.148-4.945-1.806-7.72
				c-0.099,0.876-0.199,1.753-0.298,2.629c0.84-0.615,0.846-1.174,1.278-2.279c1.324-3.394,2.289-6.806,2.942-10.378
				c0.542-2.967,0.824-5.983,1.121-8.982c0.218-2.199,0.332-3.755,1.654-5.784c-0.573,0.539-1.146,1.077-1.719,1.616
				c1.056-0.902,2.113-1.803,3.169-2.705C17.385,3.526,16.392,4.188,15.4,4.85c3.407-0.499,6.815-0.997,10.222-1.496
				c-0.754-0.264-1.507-0.527-2.261-0.791c1.195,1.55,3.082,2.466,4.759,3.406c3.269,1.832,7.001,2.332,10.633,2.91
				c4.855,0.772,9.807,0.862,14.711,1.078c3.786,0.167,7.577-0.342,10.889,1.92c-0.218-0.218-0.436-0.436-0.654-0.654
				c1.876,4.558,1.326,7.883-1.649,9.973c-0.399,0.482-0.789,0.972-1.17,1.469c-0.687,1.056-2.019,2.526-2.201,3.844
				c-0.422,3.042-0.726,6.094-1.088,9.143c-0.175,1.47-0.234,3.002-0.549,4.452c-0.08,0.367,0.699,0.825,0.998,0.757
				c0.459-0.105,0.835-0.771,0.904-1.192c0.241-1.471,0.339-2.976,0.494-4.457c0.176-1.463,0.318-2.929,0.426-4.398
				c0.07-0.697,0.14-1.394,0.21-2.091c0.319-2.385,1.298-4.439,2.937-6.163c0.425-0.51,0.961-0.806,1.609-0.886
				c0.7-0.205,1.559-2.665,1.429-2.409c1.096-2.169,0.929-4.504,0.52-6.784c-0.337-1.877-2.631-3.072-4.049-3.971
				c-0.772-0.359-1.572-0.554-2.4-0.585c-1.521-0.101-3.055-0.12-4.577-0.177c-4.742-0.178-9.479-0.418-14.215-0.719
				c-1.976-0.29-3.948-0.606-5.915-0.949c-0.898-0.169-1.796-0.337-2.694-0.506c-2.23-0.48-4.197-1.492-5.902-3.034
				c-0.108-0.84-2.475-1.223-3.106-1.177c-2.478-0.503-4.761-0.23-6.848,0.818c-0.926,0.487-2.314,1.136-2.978,1.986
				c-1.804,2.309-2.578,4.083-2.844,6.978c-0.516,5.606-0.647,11.259-1.133,16.866c0.546-1.291,1.091-2.581,1.637-3.872
				c-0.568,0.75-1.136,1.5-1.703,2.25c0.23-0.16,0.46-0.321,0.69-0.481c-1.001,0.102-1.399-0.094-1.823,0.732
				c-1.027,2-1.403,3.579-1.331,5.774c0.089,2.741,2.884,5.17,5.28,6.108c1.485,0.581,2.11,0.705,3.835,0.841
				c1.54,0.121,3.107,0.107,4.65,0.158c3.627,0.118,7.257,0.047,10.885,0.183c3.689,0.139,7.351,0.483,11.022,0.868
				c-0.482-0.119-0.963-0.238-1.445-0.357c1.5,1.078,3,2.155,4.5,3.233c0.005,0.253,0.108,0.455,0.307,0.606
				c1.315,0.763,2.715,1.307,4.2,1.631c1.307,0.248,2.578,0.134,3.815-0.34c2.481-0.6,3.469-3.378,4.006-5.488
				c0.092-0.359-0.669-0.849-0.967-0.796C56.996,39.143,56.637,39.779,56.536,40.189z"/>
			<path opacity="0.1091" fill="#00A79D" d="M52.869,42.297c-0.482,0.955-0.963,1.91-1.445,2.865
				c0.509-0.446,1.017-0.892,1.526-1.338c-0.994,0.701-1.988,1.402-2.981,2.103c0.566-0.352,1.131-0.704,1.697-1.056
				c-2.159,0.768-4.378,1.022-6.66,0.76c0.811,0.152,1.623,0.305,2.434,0.457c-1.25-1.561-4.204-2.205-5.829-2.85
				c-4.404-1.747-9.321-2.057-13.98-2.538c-4.673-0.483-9.387-0.585-14.079-0.746c-3.571-0.122-6.373,0.218-9.136-2.949
				c0.56,0.874,1.121,1.748,1.681,2.622c-0.359-3.383-0.719-6.766-1.078-10.149c-0.236,0.614-0.472,1.228-0.708,1.842
				c1.538-0.968,2.465-2.628,3.455-4.102c1.808-2.695,2.359-5.874,2.881-9c0.422-2.522,0.637-5.07,0.899-7.611
				c0.018-0.423,0.077-0.84,0.178-1.25c3.399-0.647,6.799-1.295,10.198-1.942c0.666,0.88,1.486,1.59,2.46,2.128
				c1.264,0.783,2.574,1.481,3.929,2.094c0.965,0.305,1.963,0.445,2.994,0.42c5.014,0.591,10.09,0.885,15.132,1.115
				c3.212,0.146,6.425,0.242,9.637,0.385c1.841,0.077,3.2,1.246,4.077,3.509c0.492,1.586-0.594,3.614-1.158,5.019
				c0.199-0.11,0.398-0.219,0.597-0.329c-0.975,0.119-1.364,0.325-1.914,1.179c-1.055,1.636-2.312,3.651-2.699,5.595
				c-0.613,3.084-1.125,6.145-1.426,9.276c-0.14,1.46-0.137,3.017-0.462,4.453c-0.157,0.693,0.661,1.021,1.118,0.566
				c0.706-0.704,1.665-2.378,1.716-3.39c0.211-4.234,0.585-8.372,1.239-12.564c-0.141,0.481-0.282,0.962-0.422,1.443
				c0.512-1.214,0.905-2.177,1.655-3.23c0.215-0.303,1.792-0.585,2.044-1.101c1.494-3.061,3.177-7.861-0.359-10.378
				c-1.983-1.412-1.684-1.273-4.158-1.971c-0.445-0.028-0.891-0.047-1.337-0.057c-1.188-0.041-2.376-0.081-3.565-0.121
				c-6.6-0.222-13.181-0.571-19.764-1.105c-2.941-0.239-5.897-1.535-7.824-3.769c-0.07-0.366-0.188-0.714-0.355-1.044
				c-1.415-0.915-2.948-1.537-4.599-1.865c-0.769-0.227-1.722-0.293-2.517-0.142c-2.217,0.422-2.337,0.503-4.065,1.788
				c-2.188,1.626-2.384,4.385-2.622,6.84c-0.205,2.113-0.432,4.2-0.751,6.3c-0.249,1.601-0.529,3.196-0.84,4.786
				c-0.396,2.347-1.566,4.073-3.507,5.178c-0.54,0.083-0.707,0.901-0.85,1.292c-0.9,2.464-1.163,5.109-0.14,7.597
				c0.482,1.171,1.086,2.896,2.129,3.711c1.106,1.103,2.408,1.879,3.905,2.327c0.926,0.259,1.873,0.411,2.842,0.456
				c4.195,0.588,8.617,0.291,12.836,0.343c3.951,0.049,7.935,0.51,11.866,0.865c2.621,0.236,5.329,0.396,7.885,1.049
				c-0.952-0.379-1.904-0.757-2.857-1.136c0.209,0.488,0.417,0.977,0.626,1.465c0.03,0.326,0.207,0.537,0.531,0.634
				c1.584,0.731,2.051,0.879,3.745,1.287c1.506,0.363,2.973-0.217,4.341-0.707c1.022-0.366,2.205-1.695,2.888-2.552
				c1.281-1.608,1.84-3.141,2.078-5.19c0.072-0.617-0.437-1.166-1.041-0.696C54.182,39.771,53.037,41.308,52.869,42.297z"/>
			<path opacity="0.1091" fill="#00A79D" d="M55.654,46.593c-0.907,1.38-1.814,2.761-2.721,4.141
				c0.883-0.525,1.766-1.049,2.649-1.574c-3.389,0.294-6.779,0.587-10.168,0.881c0.606,0.234,1.212,0.468,1.818,0.702
				c-0.66-1.06-1.64-1.832-2.699-2.5c-1.21-0.846-2.505-1.537-3.885-2.073c-2.551-1.208-5.251-1.364-8.007-1.718
				c-7.314-0.94-14.68-0.723-22.011-1.319c-4.061-4.985-4.383-8.621-0.964-10.907c0.394-0.472,0.776-0.953,1.145-1.444
				c0.762-1.11,1.447-2.266,2.054-3.469c0.566-1.028,0.55-3.711,0.68-4.848c0.299-2.608,0.577-5.218,0.869-7.827
				c0.722-6.448,6.246-5.366,9.924-3.52c-0.11-0.19-0.221-0.38-0.331-0.57c0.133,1.442,0.783,1.781,1.97,2.553
				c3.19,2.074,6.881,2.363,10.546,2.829c4.816,0.612,9.693,0.726,14.539,0.89c3.087,0.104,6.128,0.116,9.174,0.621
				c-0.544-0.235-1.088-0.469-1.632-0.704c0.919,0.672,1.839,1.343,2.758,2.015c-0.416-0.441-0.833-0.883-1.249-1.324
				c1.476,2.391,1.989,4.944,1.539,7.66c0.148-0.754,0.296-1.508,0.444-2.261c-1.573,1.041-2.249,3.938-2.872,5.418
				c-1.208,2.871-1.712,5.927-2.199,8.98c-0.349,2.189-0.549,4.403-0.771,6.607c-0.036,0.355-0.612,2.644-0.166,3.047
				c0.754,0.681,2.071-1.11,2.397-1.47c1.106-1.224,1.369-1.752,1.482-3.351c0.373-5.298,0.847-10.552,1.788-15.787
				c-0.545,1.088-1.091,2.176-1.636,3.263c0.595-0.762,1.19-1.524,1.784-2.286c-0.236,0.119-0.473,0.239-0.709,0.358
				c0.645-0.064,1.537,0.093,1.861-0.617c0.55-1.205,1.437-2.844,1.365-4.224c-0.036-0.686-0.071-1.371-0.107-2.057
				c-0.257-1.311-0.869-2.426-1.836-3.348c-0.703-0.906-1.944-1.568-2.974-2.014c-2.657-1.15-5.581-0.951-8.436-1.05
				c-3.629-0.125-7.259-0.078-10.888-0.23c-3.701-0.154-7.365-0.561-11.042-1.006c0.426,0.102,0.852,0.205,1.278,0.307
				c-1.975-0.797-3.451-1.508-4.606-3.576c-0.592-0.689-1.375-1.122-2.35-1.301c-1.442-0.611-2.943-0.877-4.503-0.798
				c-1.718-0.095-2.614,0.773-3.905,1.676c-1.367,0.956-1.779,2.622-2.218,4.083c-0.149,0.497-0.175,1.056-0.231,1.56
				c-0.36,3.226-0.637,6.461-0.992,9.687c-0.3,2.73-1.704,5.221-3.802,6.919c-0.361,0.081-0.711,0.193-1.05,0.336
				c-0.431,0.737-0.824,1.494-1.179,2.273c-0.965,1.885-1.288,5.215-0.276,7.142c1.155,2.198,2.997,3.231,5.288,3.873
				c0.786,0.22,2.143,0.095,2.897,0.123c3.359,0.125,6.718,0.254,10.077,0.398c3.091,0.133,6.172,0.435,9.245,0.782
				c1.929,0.225,3.852,0.489,5.771,0.792c2.241,0.639,4.169,1.82,5.783,3.545c0.082,0.538,0.881,0.701,1.274,0.845
				c2.431,0.893,5.1,1.258,7.579,0.266c1.243-0.498,2.755-1.029,3.722-2.004c1.141-0.879,1.979-1.987,2.516-3.322
				c0.329-0.796,0.532-1.63,0.607-2.5c0.24-1.128-1.508-0.24-1.686-0.124C57.531,44.592,55.881,45.501,55.654,46.593z"/>
			<path opacity="0.1091" fill="#00A79D" d="M59.475,42.724c-0.43,1.008-0.86,2.015-1.29,3.023c0.436-0.402,0.872-0.804,1.308-1.205
				c-1.014,0.653-2.029,1.306-3.043,1.958c0.521-0.188,1.042-0.376,1.563-0.563c-2.385,0.068-4.769,0.137-7.154,0.205
				c0.626,0.2,1.253,0.4,1.879,0.6c-1.508-1.98-4.6-2.855-6.844-3.817c-3.579-1.535-7.525-1.722-11.347-2.151
				c-4.641-0.521-9.368-0.521-14.032-0.66c-2.939-0.088-5.642-0.001-8.338-1.477c0.86,0.629,1.72,1.258,2.58,1.887
				c-1.016-0.927-2.032-1.853-3.048-2.78c0.738,0.793,1.477,1.585,2.215,2.378c-0.696-0.973-1.392-1.947-2.088-2.92
				c0.371,0.586,0.741,1.172,1.112,1.758c-0.534-1.658-0.77-3.353-0.709-5.086c-0.078,0.495-0.156,0.991-0.234,1.486
				c0.642-0.377,0.826-1.765,0.965-2.215c1.101-3.56,2.181-7.155,2.808-10.829c0.784-4.589,0.862-9.245,1.731-13.821
				c-0.264,0.625-0.529,1.251-0.793,1.876c0.546-0.925,1.092-1.851,1.638-2.776c-1.049,1.388-2.099,2.775-3.148,4.163
				c1.249-1.409,2.498-2.817,3.748-4.226c-1.25,1.212-2.5,2.423-3.751,3.635c1.758-1.466,3.517-2.931,5.275-4.397
				c-1.386,0.969-2.772,1.939-4.157,2.908c2.566-0.99,5.132-1.98,7.698-2.97c-1.629,0.429-3.257,0.859-4.886,1.288
				c2.183-0.242,4.366-0.483,6.549-0.725c-1.662,0.032-3.325,0.064-4.987,0.097c3.422,0.907,6.838,1.838,10.285,2.643
				c4.759,1.111,9.842,1.342,14.697,1.72c3.69,0.287,7.391,0.381,11.089,0.504c3.35,0.111,6.504-0.213,9.093,2.689
				c-0.843-1.283-1.685-2.565-2.528-3.848c0.98,2.83,1.96,5.66,2.94,8.489c-0.012-1.256-0.025-2.512-0.037-3.769
				c-0.166,1.889-0.331,3.778-0.497,5.667c0.258-1.158,0.515-2.316,0.773-3.474c-0.764,0.967-1.279,2.242-1.826,3.308
				c-1.252,2.437-2.123,4.919-2.895,7.541c-1.269,4.313-1.023,8.87-1.922,13.226c-0.119,0.576,0.22,1.229,0.916,0.854
				c0.973-0.524,2.478-2.009,2.584-3.15c0.617-6.655,1.5-13.205,3.468-19.615c-0.587,1.183-1.174,2.367-1.76,3.55
				c2.306-2.384,2.969-6.287,1.85-9.438c-0.593-1.67-1.82-3.653-3.05-4.929c-1.194-1.239-3.137-1.813-4.678-2.352
				c-0.698-0.244-2.686-0.271-3.689-0.329c-2.903-0.167-5.787-0.2-8.696-0.213c-4.106-0.019-8.192-0.353-12.296-0.465
				c-2.003-0.058-4.005-0.133-6.007-0.225c-2.046,0.393-4.111,0.613-6.195,0.66c2.074,0.571,4.148,1.143,6.222,1.714
				c-0.237-0.735-0.566-1.42-0.987-2.057c-3.454-1.707-2.896-1.035-7.984-0.754C18.901,5.54,18.34,5.928,17.883,6.48
				c-1.082,0.999-2.954,2.426-3.573,3.809c-1.644,3.678-1.738,3.192-1.85,6.561c-0.028,0.851-0.04,1.705-0.061,2.557
				c-0.11,4.412-0.296,8.824-0.768,13.214c0.481-1.638,0.961-3.275,1.442-4.913c-0.648,0.88-1.439,1.561-2.373,2.043
				c-0.681,1.43-1.559,2.968-1.415,4.638c-0.077,1.331,0.208,2.577,0.857,3.737c0.295,0.748,1.249,1.565,1.83,2.104
				c1.937,1.799,3.804,2.523,6.449,2.778c3.247,0.312,6.556,0.242,9.812,0.291c4.897,0.073,9.717,0.432,14.579,0.998
				c1.371,0.296,2.743,0.593,4.114,0.889c0.719,0.755,1.454,1.495,2.203,2.22c2.301,0.906,3.973,1.232,6.443,1.087
				c1.414-0.083,3.142-1.131,4.235-1.97c0.652-0.501,1.55-1.209,1.956-1.927c1.115-1.974,1.01-1.846,1.507-4.052
				c0.233-1.033-1.386-0.282-1.56-0.163C60.909,40.933,59.689,41.71,59.475,42.724z"/>
			<path opacity="0.1091" fill="#00A79D" d="M53.998,40.648c-0.45,0.936-0.9,1.872-1.35,2.808c0.538-0.487,1.076-0.974,1.614-1.461
				c-0.996,0.731-1.992,1.463-2.988,2.194c0.61-0.408,1.221-0.817,1.831-1.225c-1.751,0.676-3.268,0.622-5.156,0.747
				c0.501,0.079,1.002,0.158,1.502,0.237c-0.139-0.251-0.349-0.426-0.63-0.524c-1.915-0.601-3.843-1.158-5.784-1.672
				c-4.665-1.313-9.318-1.844-14.137-2.282c-4.692-0.426-9.407-0.563-14.114-0.721c-2.743-0.092-5.417,0.103-7.881-1.394
				c0.716,0.663,1.432,1.326,2.149,1.99c-1.084-1.134-2.169-2.268-3.253-3.403c0.951,1.181,1.902,2.362,2.854,3.543
				c-0.937-1.441-1.874-2.881-2.812-4.322c0.626,1.264,1.252,2.529,1.877,3.793c-0.731-1.872-1.462-3.745-2.194-5.617
				c0.356,1.283,0.712,2.567,1.068,3.85c-0.307-1.919-0.614-3.839-0.921-5.758c0.081,1.281,0.161,2.562,0.242,3.843
				c0.111-1.913,0.222-3.827,0.333-5.74c-0.337,1.337-0.674,2.674-1.011,4.012c1.029-1.06,1.751-2.322,2.167-3.786
				c0.494-1.092,0.975-2.19,1.444-3.294c0.955-2.848,1.551-5.709,2.066-8.665c0.379-2.18,0.604-4.368,0.831-6.567
				c0.072-0.757,0.154-1.513,0.246-2.268c0.157-2.068,1.177-3.671,3.06-4.811c-0.718,0.44-1.437,0.88-2.155,1.32
				c1.659-0.48,3.319-0.96,4.978-1.44c-0.432,0.044-0.863,0.089-1.295,0.133c1.192,0.019,2.385,0.037,3.577,0.056
				c-0.391-0.043-0.782-0.085-1.172-0.128c1.094,0.289,2.187,0.578,3.281,0.868c-0.399-0.224-0.799-0.448-1.198-0.672
				c0.802,1.548,2.555,2.678,4.065,3.501c1.383,0.81,2.814,1.522,4.295,2.137c1.324,0.608,4.4,0.599,5.804,0.753
				c4.836,0.53,9.706,0.739,14.565,0.942c1.981,0.083,3.963,0.152,5.944,0.227c2.042,0.077,3.068,0.068,4.965,2.249
				c-0.198-0.319-0.396-0.638-0.593-0.956c1.109,2.793,0.689,4.251,0.103,6.947c0.13-0.255,0.26-0.51,0.39-0.764
				c-0.766,0.172-1.135,0.729-1.535,1.383c-1.163,1.902-2.244,3.934-2.944,6.057c-0.755,2.289-0.916,4.909-1.248,7.285
				c-0.301,2.153-0.186,4.408-0.643,6.536c-0.153,0.71,0.614,1.076,1.108,0.584c0.725-0.721,1.829-2.502,1.87-3.547
				c0.168-4.274,0.579-8.453,1.219-12.683c-0.169,0.521-0.337,1.043-0.506,1.564c0.773-1.793,1.217-3.633,3.386-4.157
				c0.653-0.557,1.032-1.306,1.136-2.248c0.535-1.376,0.722-2.796,0.561-4.26c0.009-2.652-2.565-4.496-4.536-5.67
				c-0.79-0.471-1.781-0.579-2.686-0.626c-2.308-0.119-4.624-0.152-6.933-0.231c-6.71-0.23-13.398-0.652-20.077-1.337
				c0.307,0.11,0.613,0.219,0.92,0.329c-1.98-0.875-3.868-1.918-5.662-3.131c0.265,0.232,0.53,0.464,0.795,0.697
				c-0.623-0.714-0.72-1.914-1.632-2.298c-2.06-0.868-2.199-0.886-4.388-1.217c-2.187-0.331-5.615,0.542-7.146,2.221
				c-0.523,0.574-1.045,1.147-1.568,1.721c-0.915,1.266-1.455,2.676-1.62,4.229c-0.24,1.006-0.248,2.093-0.34,3.115
				C7.62,19.348,6.696,25.388,5.26,30.968c0.575-1.21,1.15-2.421,1.726-3.631c-0.982,0.973-1.295,1.568-1.72,2.89
				c-0.611,1.896-1.296,4.684-0.462,6.475c1.35,2.902,4.522,6.416,7.958,6.646c4.094,0.274,8.163,0.359,12.268,0.343
				c7.056-0.028,14.184,0.238,21.232,0.576c-1.535-0.506-3.07-1.012-4.605-1.519c0.64,0.715,1.28,1.43,1.919,2.146
				c0.368,0.816,1.088,1.266,2.163,1.349c0.999,0.506,3.526,0.847,4.681,0.419c1.992-0.738,3.408-1.696,4.719-3.358
				c0.458-0.546,0.851-1.134,1.181-1.764c0.677-1.076,0.995-2.252,0.955-3.527c0.075-0.638-0.402-1.211-1.04-0.698
				C55.42,37.97,54.176,39.599,53.998,40.648z"/>
			<path opacity="0.1091" fill="#00A79D" d="M56.85,40.23c-0.391,0.993-0.783,1.986-1.174,2.979
				c0.907-1.018,1.814-2.035,2.721-3.053c-1.229,1.056-2.458,2.113-3.686,3.169c0.751-0.45,1.503-0.901,2.254-1.351
				c-2.26,0.899-4.613,1.339-7.058,1.321c1.156,0.007,2.311,0.015,3.467,0.022c-0.226-0.133-0.46-0.25-0.703-0.35
				c-3.222-0.622-6.427-1.329-9.613-2.12c-4.736-1.116-9.692-1.303-14.53-1.641c-3.695-0.258-7.4-0.353-11.101-0.473
				c-2.71-0.088-5.353,0.118-7.8-1.325c1.52,1.235,3.039,2.469,4.559,3.704c-1.79-1.872-3.581-3.744-5.371-5.616
				c1.079,1.579,2.157,3.158,3.236,4.736c-1.188-2.145-2.376-4.289-3.564-6.434c0.803,1.716,1.606,3.432,2.409,5.148
				c-0.747-2.32-1.493-4.64-2.24-6.96c0.51,1.845,1.019,3.69,1.529,5.535c-0.33-2.396-0.659-4.792-0.989-7.188
				c0.025,2.124,0.05,4.248,0.076,6.372c1.503-4.609,2.152-9.46,2.925-14.237c0.373-2.303,0.678-4.597,0.934-6.917
				c0.416-3.768,0.009-7.917,3.201-10.768c-1.457,1.035-2.914,2.071-4.371,3.106c1.999-1.25,3.999-2.5,5.998-3.75
				c-1.482,0.761-2.965,1.522-4.447,2.282c1.713-0.678,3.426-1.356,5.138-2.034c-1.528,0.403-3.057,0.806-4.585,1.209
				c2.171-0.396,4.341-0.791,6.512-1.187c-1.529,0.117-3.059,0.233-4.588,0.35c2.172,0.038,4.344,0.076,6.516,0.115
				c-1.456-0.205-2.912-0.409-4.368-0.614c0.451,0.267,0.93,0.472,1.437,0.615c2.782,1.044,5.539,2.105,8.406,2.893
				c3.733,1.026,7.737,1.291,11.565,1.692c4.699,0.492,9.436,0.587,14.154,0.739c3.552,0.115,6.385-0.153,9.212,2.829
				c-0.737-0.999-1.474-1.998-2.211-2.996c0.769,1.296,1.538,2.591,2.307,3.887c-0.502-1.076-1.003-2.151-1.505-3.227
				c0.451,1.29,0.903,2.58,1.354,3.869c-0.177-0.707-0.355-1.414-0.532-2.122c0.182,1.353,0.364,2.706,0.545,4.059
				c-0.058-0.723-0.117-1.447-0.175-2.17c-0.052,1.318-0.104,2.636-0.156,3.953c0.094-0.726,0.189-1.453,0.283-2.179
				c-1.982,3.917-3.518,8.043-4.346,12.355c-0.259,1.507-0.491,3.018-0.695,4.534c-0.313,2.176-0.212,4.445-0.646,6.603
				c-0.154,0.765,0.324,1.355,1.045,0.69c0.573-0.628,1.085-1.302,1.535-2.024c0.523-0.792,1.292-1.765,1.321-2.77
				c0.159-5.547,0.787-11.035,2.028-16.448c-0.586,1.332-1.173,2.664-1.759,3.996c0.626-0.649,1.251-1.298,1.877-1.946
				c0.337-0.027,0.556-0.21,0.656-0.547c0.618-1.703,1.374-3.407,0.888-5.257c-0.592-2.252-0.763-3.238-1.972-4.996
				c-2.022-2.941-4.901-4.169-8.388-4.399c-4.216-0.278-8.429-0.308-12.653-0.372c-3.02-0.046-6.086-0.419-9.09-0.712
				c-1.887-0.188-3.772-0.39-5.656-0.606c-3.019,0.009-5.977-0.402-8.874-1.234c-0.672-0.027-1.305,0.137-1.898,0.49
				c-1.302,0.55-3.441,1.232-4.447,2.282c-1.132,1.181-2.748,2.69-3.301,4.334c-0.677,1.469-1.008,3.013-0.993,4.631
				c-0.052,0.396-0.076,0.794-0.07,1.195c-0.121,2.694-0.249,5.372-0.224,8.069c0.012,1.709,0.014,3.418,0.004,5.127
				c0.193,0.767,0.386,1.533,0.579,2.3c0.253,1.02,0.441,2.051,0.565,3.093c0.539-2.387,1.078-4.773,1.618-7.16
				c-2.588,2.246-1.859,4.739-2.694,8.797c-0.175,0.85,2.458,3.143,2.794,3.491c0.94,0.97,2.081,2.385,3.403,2.9
				c1.227,0.573,2.491,1.043,3.79,1.407c0.87,0.006,1.739,0.023,2.608,0.052c2.294,0.072,4.574,0.14,6.87,0.112
				c7.869-0.096,15.745,0.009,23.613-0.022c-1.923-0.493-3.846-0.985-5.769-1.478c0.836,0.637,1.53,1.388,2.084,2.253
				c1.273,0.781,2.654,1.228,4.144,1.339c1.461,0.287,3.016-0.378,4.306-0.898c1.453-0.586,2.906-2.315,3.894-3.485
				c1.531-1.813,1.995-3.44,2.288-5.752c0.172-1.354-1.881,0.515-1.841,0.471C58.478,37.523,57.1,38.825,56.85,40.23z"/>
			<path opacity="0.1091" fill="#00A79D" d="M59.264,44.561c-0.914,1.403-1.827,2.806-2.741,4.21
				c0.851-0.498,1.702-0.995,2.553-1.493c-1.615,0.541-3.23,1.082-4.845,1.623c0.533-0.065,1.065-0.131,1.598-0.196
				c-1.254,0.024-2.509,0.047-3.763,0.071c0.504,0.03,1.009,0.06,1.513,0.09c-1.156-0.203-2.313-0.406-3.469-0.609
				c0.545,0.242,1.089,0.484,1.634,0.727c-1.074-1.497-3.128-2.606-4.786-3.383c-1.422-0.717-2.884-1.341-4.386-1.871
				c-1.723-0.676-4.097-0.709-5.907-0.939c-4.836-0.615-9.719-0.781-14.586-0.956c-3.621-0.13-7.461,0.223-10.732-1.681
				c0.596,0.49,1.192,0.979,1.788,1.469c-0.813-0.838-1.627-1.675-2.44-2.513c0.465,0.612,0.93,1.223,1.394,1.835
				c-0.376-1.009-0.752-2.018-1.127-3.028c0.061-1.272,0.185-2.538,0.37-3.798c-0.124,0.331-0.247,0.663-0.371,0.994
				c0.729-0.266,1.037-1.018,1.356-1.682c1.026-2.137,1.898-4.314,2.689-6.548c1.049-2.961,1.226-6.453,1.519-9.559
				c0.208-2.203,0.421-4.304,0.822-6.477c-0.376,0.729-0.752,1.458-1.127,2.188c0.669-0.958,1.338-1.916,2.006-2.874
				c-0.606,0.59-1.211,1.18-1.817,1.77c1.053-0.865,2.107-1.731,3.16-2.596c-0.691,0.49-1.381,0.979-2.072,1.469
				c2.145-0.951,4.399-1.412,6.762-1.382c-1.099-0.025-2.198-0.05-3.297-0.074c0.208,0.2,0.449,0.35,0.723,0.451
				c2.113,0.49,4.221,1.004,6.323,1.542c4.761,1.179,9.498,1.785,14.382,2.216c4.702,0.415,9.42,0.567,14.136,0.724
				c2.683,0.09,5.445-0.104,7.863,1.342c-0.764-0.73-1.528-1.46-2.293-2.19c1.138,1.198,2.275,2.395,3.413,3.593
				c-1.019-1.289-2.039-2.578-3.058-3.867c1.115,2.113,2.231,4.225,3.346,6.338c-0.397-1.4-0.795-2.801-1.192-4.201
				c0.361,2.032,0.722,4.064,1.083,6.096c-0.109-1.406-0.217-2.811-0.326-4.217c-0.069,2.028-0.138,4.056-0.207,6.084
				c0.326-1.482,0.652-2.965,0.977-4.447c-1.61,2.201-2.452,5.066-3.471,7.571c-0.882,2.166-1.215,4.616-1.669,6.89
				c-0.436,2.185-0.709,4.399-0.949,6.611c-0.162,1.489-0.192,3.057-0.518,4.524c-0.26,1.17,1.635-0.031,1.692-0.078
				c0.79-0.656,2.292-1.736,2.411-2.859c0.317-2.984,0.494-5.965,0.951-8.934c0.8-5.195,1.634-10.38,2.097-15.615
				c-0.099-0.657-0.376-1.239-0.832-1.746c-0.775-1.149-1.85-3.104-3.058-3.867c-0.754-0.593-1.57-1.071-2.447-1.435
				c-1.442-0.622-2.948-0.89-4.519-0.802c-1.566-0.097-3.136-0.145-4.703-0.216c-3.732-0.169-7.483,0.07-11.221-0.08
				c-2.044-0.121-4.091-0.173-6.139-0.157c-0.995-0.015-1.99-0.029-2.986-0.044c-2.154-0.129-4.303-0.069-6.449,0.18
				c1.719,0.533,3.438,1.065,5.157,1.598c-0.84-0.703-1.536-1.515-2.089-2.434c-0.66-0.329-1.32-0.658-1.98-0.987
				c-1.37-0.51-2.775-0.648-4.214-0.415c-2.832,0.11-4.941,3.02-6.295,5.169c-1.178,1.869-1.284,3.813-1.389,5.937
				c-0.086,1.74-0.166,3.481-0.253,5.221c-0.121,2.43-0.528,5.685-1.432,7.889c0.277-0.54,0.555-1.08,0.832-1.619
				c-0.274,0.427-0.547,0.854-0.821,1.281c-0.501,0.403-1.054,0.683-1.661,0.839c-0.56,0.657-0.921,1.43-1.084,2.319
				c-0.487,1.373-0.623,2.779-0.407,4.216c0.067,1.977,2.252,4.469,3.959,5.272c1.572,0.739,2.415,1.086,4.187,1.203
				c2.248,0.148,4.501,0.223,6.752,0.278c3.891,0.097,7.762,0.273,11.647,0.521c4.545,0.29,9.127,0.88,13.138,3.182
				c-0.377-0.267-0.753-0.535-1.13-0.802c0.307,0.717,0.705,1.374,1.192,1.971c0.731,0.298,1.464,0.589,2.201,0.873
				c1.386,0.546,3.793,0.508,5.252,0.089c1.355-0.39,2.707-0.99,3.893-1.752c2.372-1.524,3.251-3.719,3.899-6.282
				c0.28-1.108-1.485-0.297-1.665-0.189C61.174,42.64,59.501,43.495,59.264,44.561z"/>
			<path opacity="0.1091" fill="#00A79D" d="M53.419,43.63c-0.156,0.846-0.313,1.692-0.469,2.538
				c0.217-0.459,0.435-0.918,0.652-1.377c-0.512,0.795-1.024,1.589-1.536,2.384c0.857-0.962,1.714-1.924,2.572-2.887
				c-1.121,1.06-2.241,2.121-3.362,3.181c0.996-0.813,1.993-1.627,2.989-2.44c-1.541,1.036-3.081,2.073-4.622,3.109
				c1.064-0.618,2.128-1.237,3.192-1.855c-1.267,0.5-2.533,1.001-3.8,1.501c0.716-0.228,1.432-0.455,2.147-0.683
				c-2.339,0.074-4.677,0.149-7.016,0.223c1.261,0.234,2.523,0.469,3.784,0.703c-1.611-1.613-4.702-2.701-6.832-3.37
				c-3.396-1.067-6.829-1.565-10.346-2.022c-4.864-0.632-9.788-0.793-14.684-0.979c-4.203-0.159-8.509,0.545-11.648-3.134
				c0.428,0.752,0.856,1.504,1.284,2.257c-0.161-3.296-0.322-6.593-0.483-9.889c-0.138,0.267-0.275,0.533-0.413,0.8
				c0.811-0.357,1.488-0.926,2.037-1.637c0.432-0.546,0.855-1.099,1.27-1.658c0.691-1.127,1.911-2.683,2.128-4
				c0.489-2.973,0.842-5.952,1.194-8.944c0.385-3.276,0.124-6.019,3.327-8.331c-0.23,0.09-0.461,0.181-0.691,0.271
				c3.412-0.681,5.181-0.154,8.124,1.22c-0.076-0.202-0.151-0.404-0.227-0.607c0.052,0.41,0.125,0.816,0.221,1.218
				c0.763,0.834,1.479,1.491,2.467,2.068c1.197,0.699,2.294,1.294,3.53,1.94c0.884,0.462,2.795,0.472,3.381,0.539
				c5.838,0.664,11.747,0.9,17.615,1.135c3.071,0.123,6.102,0.049,9.115,0.665c-0.336-0.135-0.672-0.27-1.007-0.405
				c3.295,2.001,2.493,4.027,1.913,6.959c0.199-0.143,0.399-0.286,0.598-0.429c-1.025,0.237-1.342,0.661-1.804,1.619
				c-0.993,2.06-1.802,4.167-2.516,6.341c-0.776,2.362-0.945,4.984-1.258,7.437c-0.275,2.154-0.166,4.448-0.661,6.567
				c-0.182,0.78,0.464,1.246,1.078,0.638c0.518-0.615,0.972-1.274,1.364-1.978c0.428-0.682,0.788-1.397,1.078-2.147
				c0.068-1.432,0.123-2.865,0.183-4.298c0.133-3.205,0.164-6.963,1.28-9.985c-0.257,0.501-0.515,1.002-0.772,1.503
				c0.391-1.084,1.151-1.754,2.281-2.012c0.844-0.15,1.124-1.602,1.344-2.094c0.862-1.923,1.327-4.797-0.062-6.629
				c-1.037-1.366-1.777-1.97-3.235-2.855c-1.61-0.977-3.879-0.772-5.686-0.82c-4.272-0.114-8.544-0.23-12.811-0.459
				c-2.793-0.15-5.585-0.303-8.375-0.497c-2.516-1.249-5.032-2.497-7.547-3.746c-0.03-0.387-0.154-0.733-0.37-1.039
				c-1.421-0.904-2.955-1.526-4.602-1.867c-1.459-0.438-2.736-0.088-4.148,0.167c-1.47,0.265-3.538,2.292-3.982,3.708
				c-0.671,2.141-0.855,4.111-1.095,6.35c-0.248,2.31-0.515,4.618-0.8,6.924c-0.444,3.597-1.842,4.981-4.569,7.115
				c-1.226,0.959-1.379,3.596-1.534,5.043c-0.215,2.001,0.414,4.172,1.312,5.942c2.666,5.257,9.647,4.739,14.598,4.829
				c4.97,0.09,9.894,0.325,14.841,0.83c4.101,0.418,8.285,0.817,12.3,1.76c-1.203-0.497-2.407-0.993-3.61-1.49
				c0.305,0.315,0.611,0.631,0.916,0.946c-0.123-0.247-0.245-0.494-0.368-0.741c0.022,0.398,0.044,0.797,0.067,1.195
				c0.014,0.335,0.185,0.559,0.514,0.672c1.602,0.701,2.098,0.885,3.796,1.243c2.412,0.508,3.988-0.734,6.006-1.828
				c1.046-0.567,2.007-1.823,2.752-2.715c1.335-1.599,1.51-3.196,1.742-5.171c0.076-0.651-0.844-0.42-1.073-0.25
				c-0.595,0.534-1.135,1.121-1.618,1.761C54.261,42.275,53.808,42.931,53.419,43.63z"/>
		</g>
	</g>
</g>
<text transform="matrix(1 0 0 1 11.4966 37.3518)" fill="#F1F2F2" font-family="'BlackoakStd'" font-size="28.9545">Z</text>
</svg>
